# xmcd CD database file
#
# Track frame offsets:
#	150
#	15746
#	39116
#	65334
#	94710
#	118889
#	141997
#	159958
#	175343
#	192836
#
# Disc length: 2818 seconds
#
# Revision: 0
# Processed by: cddbd v1.5.2PL0 Copyright (c) Steve Scherf et al.
# Submitted via: CDex 1.70beta2
#
DISCID=7e0b000a
DTITLE=Sweet Jam Style - 渋谷系BOSSA
DYEAR=2010
DGENRE=Jazz
TTITLE0=今夜はブギー・バック
TTITLE1=ぼくらが旅にでる理由
TTITLE2=ラブリー
TTITLE3=東京は夜の七時
TTITLE4=ベイビィ・ポータブル・ロック
TTITLE5=接吻Kiss
TTITLE6=恋とマシンガン
TTITLE7=カメラ!カメラ!カメラ!
TTITLE8=STAR FRUITS SURF RIDER
TTITLE9=ハミングがきこえる
EXTD=YEAR: 2010
EXTT0=
EXTT1=
EXTT2=
EXTT3=
EXTT4=
EXTT5=
EXTT6=
EXTT7=
EXTT8=
EXTT9=
PLAYORDER=
